# xmcd
# 
# Track frame offsets:
#     150
#     13287
#     27392
#     38500
#     49492
#     65417
#     77912
#     87615
#     101515
#     112007
#     124795
#     135822
#     146957
# 
# Disc length: 2133
# 
# Revision: 0
# Processed by: cddbd v1.5.2PL0 Copyright (c) Steve Scherf et al.
# Submitted via: fre:ac v1.0.31
# 
DISCID=b808530d
DTITLE=Leon Redbone - Sugar
DYEAR=1990
DGENRE=Blues
TTITLE0=Ghost Of The St Louis Blues
TTITLE1=Roll Along Kentucky Moon
TTITLE2=Right Or Wrong
TTITLE3=Laughin' Blues
TTITLE4=Breeze
TTITLE5=The Whistling Colonel
TTITLE6=Sugar
TTITLE7=Pretty Baby
TTITLE8=When I Take My Sugar To Tea
TTITLE9=What You Want Me To Do
TTITLE10=Messin' Around
TTITLE11=So, Relax
TTITLE12=14th Street Blues
EXTD=
EXTT0=
EXTT1=
EXTT2=
EXTT3=
EXTT4=
EXTT5=
EXTT6=
EXTT7=
EXTT8=
EXTT9=
EXTT10=
EXTT11=
EXTT12=
PLAYORDER=
